<svg width="264" height="104" viewBox="0 0 264 104" fill="none" xmlns="http://www.w3.org/2000/svg">
<path d="M262 20.9004V20.4004H261.5H259.2C250.476 20.4004 243.5 13.4242 243.5 4.70039V2.40039V1.90039H243H134.9H129.2H21.1H20.6V2.40039V4.70039C20.6 13.4222 13.5259 20.4004 4.9 20.4004H2.5H2V20.9004V83.3004V83.8004H2.5H4.9C13.5239 83.8004 20.6 90.8765 20.6 99.5004V101.9V102.4H21.1H243H243.5V101.9V99.5004C243.5 90.8745 250.478 83.8004 259.2 83.8004H261.5H262V83.3004V20.9004ZM259.2 21.4004H261V82.8004H259.2C249.922 82.8004 242.5 90.3263 242.5 99.5004V101.4H21.6V99.5004C21.6 90.3242 14.0761 82.8004 4.9 82.8004H3V21.4004H4.9C14.0741 21.4004 21.6 13.9785 21.6 4.70039V2.90039H129.2H134.9H242.5V4.70039C242.5 13.9765 249.924 21.4004 259.2 21.4004ZM263 19.4004V84.8004H259.1C251.024 84.8004 244.4 91.4242 244.4 99.5004V103.3H19.6V99.5004C19.6 91.4242 12.9761 84.8004 4.9 84.8004H1V19.4004H4.9C12.9738 19.4004 19.6 12.8788 19.6 4.70039V0.900391H129.6H136.2H244.4V4.70039C244.4 12.8788 251.026 19.4004 259.1 19.4004H263Z" fill="#3F3B37" stroke="#3F3B37"/>
<path fill-rule="evenodd" clip-rule="evenodd" d="M25.2 6.40039H238.7L239.3 9.10039C241 16.8004 247.1 22.8004 254.8 24.5004L257.4 25.1004V79.1004L254.8 79.7004C247.1 81.4004 241 87.5004 239.3 95.1004L238.7 97.8004H25.2L24.6 95.1004C22.9 87.5004 16.9 81.4004 9.2 79.7004L6.5 79.1004V25.1004L9.2 24.5004C16.9 22.8004 23 16.8004 24.6 9.10039L25.2 6.40039ZM28.8 10.9004C26.6 19.6004 19.8 26.4004 11.1 28.7004V75.5004C19.8 77.7004 26.6 84.5004 28.8 93.2004H235.2C237.4 84.5004 244.2 77.7004 252.9 75.5004V28.7004C244.2 26.4004 237.4 19.6004 235.2 10.9004H28.8Z" fill="#eee9db"/>
</svg>
